<mxfile host="app.diagrams.net" modified="2024-03-31T02:18:18.308Z" agent="Mozilla/5.0 (Windows NT 10.0; Win64; x64) AppleWebKit/537.36 (KHTML, like Gecko) Chrome/123.0.0.0 Safari/537.36" version="24.2.1" etag="RmtX9Vex3b7YM4hp-0i_" type="github">
  <diagram name="PÃ¡gina-1" id="6xLQolMYiU3hqrQETWIM">
    <mxGraphModel>
      <root>
        <mxCell id="0" />
        <mxCell id="1" parent="0" />
      </root>
    </mxGraphModel>
  </diagram>
</mxfile>
